<svg xmlns="http://www.w3.org/2000/svg" width="500" height="500"><path d="M228 43.016c-17.137 1.839-29.234 4.679-51.043 11.987-7.556 2.531-35.102 16.688-42.408 21.794-12.37 8.645-21.911 16.913-33.298 28.856-6.737 7.066-13.348 14.422-14.691 16.347C75.088 138.442 70 146.261 70 147.448c0 .769-1.125 2.736-2.5 4.37s-2.5 3.451-2.5 4.038c0 .587-1.575 4.386-3.5 8.441-1.925 4.056-3.5 8.048-3.5 8.872 0 .824-.299 1.796-.664 2.161-1.237 1.238-4.398 11.127-6.925 21.67-5.513 22.994-5.762 25.204-5.808 51.5-.041 23.889.082 25.555 2.778 37.5 4.853 21.499 5.345 23.336 8.015 29.94 1.432 3.541 2.604 6.823 2.604 7.291 0 2.499 13.4 29.267 16.487 32.936 1.382 1.643 2.513 3.37 2.513 3.838 0 .469.564 1.447 1.254 2.174.69.726 3.311 4.332 5.825 8.012 5.746 8.412 10.547 14.066 19.421 22.869 11.359 11.269 12.769 12.529 17.75 15.86 2.613 1.747 4.75 3.528 4.75 3.959 0 .431 1.237 1.422 2.75 2.202 3.585 1.85 9.563 5.829 10.228 6.807.287.423 1.872 1.455 3.522 2.293 9.209 4.679 16.995 8.99 17.464 9.67.958 1.388 26.329 10.822 34.036 12.656 4.125.982 8.85 2.372 10.5 3.089 11.951 5.194 80.499 5.071 90.831-.162 1.557-.789 3.673-1.434 4.703-1.434 1.03 0 2.906-.393 4.169-.874 1.263-.481 4.772-1.648 7.797-2.594 6.46-2.02 25.832-9.396 28-10.661.825-.482 2.462-1.294 3.638-1.806 3.86-1.68 23.854-14.189 24.195-15.138.184-.51.819-.927 1.413-.927 1.468 0 14.721-10.847 23.104-18.911 8.554-8.227 20.575-21.805 24.15-27.278.55-.842 1.861-2.831 2.914-4.421C429.205 350.602 432 346.134 432 345.273c0-.552.798-2.076 1.774-3.388.976-1.312 3.26-6.21 5.076-10.885 1.816-4.675 3.67-9.4 4.12-10.5 4.001-9.778 8.6-26.342 9.994-36 .635-4.4 1.578-10.737 2.095-14.082 2.487-16.076-.219-58.589-4.513-70.918-.767-2.2-1.712-5.575-2.101-7.5-.804-3.978-5.407-16.818-8.962-25-1.314-3.025-2.688-6.625-3.054-8-.366-1.375-1.256-3.176-1.978-4.002-.721-.826-1.792-2.626-2.379-4s-1.631-3.372-2.32-4.44l-5.477-8.5c-2.323-3.607-5.136-7.754-6.25-9.216-1.114-1.462-2.025-3.127-2.025-3.7 0-.574-.619-1.402-1.375-1.842-.756-.44-4.07-4.175-7.364-8.3-8.562-10.719-31.403-31.905-37.736-35.001-.564-.276-4.4-2.711-8.525-5.413-4.125-2.701-9.975-6.251-13-7.889-3.025-1.637-6.175-3.536-7-4.219-.825-.683-2.625-1.564-4-1.957-1.375-.394-6.775-2.395-12-4.446-5.225-2.052-11.75-4.3-14.5-4.995-2.75-.696-5.9-1.628-7-2.071-3.967-1.598-15.18-3.994-24-5.13-11.158-1.436-41.431-1.944-51.5-.863M342.588 141c-.323 2.2-.838 5.715-1.144 7.812-.548 3.757-.642 3.829-6.622 5.064-3.336.689-7.786 2.339-9.889 3.666-7.307 4.613-11.361 15.442-9.026 24.112 1.495 5.553 7.447 11.21 18.593 17.672 7.56 4.383 9.052 5.664 9.322 8.006.46 3.981-1.394 5.672-6.194 5.646-4.802-.026-10.759-2.513-15.398-6.429-3.639-3.072-2.713-3.374-11.447 3.74-4.189 3.412-4.581 4.062-3.5 5.803 1.749 2.816 11.411 9.307 16.958 11.391l4.74 1.782-.613 4.117a384.651 384.651 0 01-1.376 8.444c-.865 4.907-1.239 4.613 7.905 6.203 7.428 1.292 7.567 1.187 8.526-6.407 1.442-11.42 1.526-11.622 4.842-11.622 4.541 0 13.289-4.549 16.275-8.463 2.81-3.684 5.464-11.199 5.454-15.446-.02-9.257-5.895-16.575-18.744-23.35-10.053-5.3-11.696-6.761-10.797-9.594 1.522-4.795 12.556-3.017 19.251 3.101l2.205 2.015 4.897-4.101c7.817-6.545 7.775-6.404 3.171-10.563-2.228-2.014-6.106-4.659-8.616-5.879-5.05-2.453-4.862-1.499-2.812-14.307l.654-4.086-7.044-1.164c-9.396-1.551-8.905-1.697-9.571 2.837m-193.056-.338c-3.282.792-6.099 1.572-6.26 1.732-.161.161.44 3.834 1.335 8.161 1.06 5.128 1.27 7.986.602 8.209-3.293 1.097-10.749 7.095-12.944 10.412-4.804 7.259-3.982 18.659 1.821 25.269 4.331 4.933 10.132 7.341 21.938 9.106 5.719.856 10.979 2.037 11.688 2.625.708.588 1.288 2.353 1.288 3.923 0 3.404-2.721 5.432-8.5 6.332-3.493.545-5.857.156-15.417-2.532-.892-.251-2.841 2.013-5.25 6.097-2.108 3.572-3.833 6.86-3.833 7.306 0 2.021 9.877 5.125 17.975 5.649l8.476.549 1.524 7.679c.839 4.224 1.834 7.983 2.211 8.353.377.37 3.864.105 7.75-.59 8.057-1.44 7.804-.889 5.498-11.942l-1.565-7.5 2.315-1.448c5.45-3.408 11.498-10.732 12.654-15.324 1.507-5.982 1.469-7.332-.381-13.561-3.118-10.5-10.604-15.253-26.946-17.11-9.59-1.09-12.511-2.273-12.511-5.069 0-3.565 4.254-5.27 11.747-4.707 3.714.279 7.657.804 8.762 1.167 1.707.56 2.509-.355 5.339-6.093 3.166-6.422 3.24-6.817 1.508-8.084-2.519-1.842-11.044-4.271-14.989-4.271h-3.269l-1.719-8c-1.919-8.929-1.391-8.62-10.847-6.338M134.015 307.25c.026 2.24 7.641 16.512 13.326 24.978 20.847 31.045 49.482 50.519 84.477 57.453 12.926 2.562 38.548 2.326 51.365-.472 19.011-4.151 32.26-9.712 47.668-20.008 17.394-11.623 38.034-34.448 47.909-52.981 2.332-4.377 4.24-8.466 4.24-9.089 0-.835-32.532-1.131-124.5-1.131-98.941 0-124.497.257-124.485 1.25" fill="undefined" fill-rule="evenodd"/></svg>