<svg xmlns="http://www.w3.org/2000/svg" width="500" height="500"><path d="M0 250.002v250.002l250.25-.252 250.25-.252.252-249.75L501.004 0H0v250.002m.492.498c0 137.5.116 193.601.258 124.67.142-68.932.142-181.432 0-250C.608 56.601.492 113 .492 250.5M198.75 107.352C177.988 119.505 161 129.691 161 129.985c0 .704 75.104 44.571 75.893 44.328 1.608-.495 77.026-43.878 77.035-44.313.005-.275-15.35-9.275-34.122-20a244340.4 244340.4 0 01-38.719-22.123l-4.587-2.624-37.75 22.099m-55.51 96.173l.26 44.699 38 21.862c20.9 12.025 38.338 21.875 38.75 21.889.412.014.75-19.944.75-44.35v-44.376l-38.123-21.874c-20.968-12.031-38.522-22.027-39.01-22.212-.511-.194-.777 18.643-.627 44.362m151.182-23.73c-19.843 11.413-37.281 21.538-38.75 22.5L253 204.046v44.05c0 36.782.226 43.997 1.37 43.727.753-.178 18.287-9.998 38.965-21.823l37.596-21.5.035-44.75c.018-24.613-.079-44.74-.216-44.727-.137.013-16.485 9.36-36.328 20.772m9.828 116.436L253 325.422v44.396c0 41.87.1 44.358 1.75 43.727.963-.368 24.363-13.537 52-29.264L357 355.685v-44.343c0-24.388-.337-44.333-.75-44.322-.413.011-23.812 13.156-52 29.211M143 325.295v44.509l38.509 22.098c21.18 12.154 38.734 22.098 39.01 22.098.276 0 .384-20.058.241-44.573l-.26-44.573-37.5-21.542c-20.625-11.848-38.062-21.763-38.75-22.034-.989-.389-1.25 8.814-1.25 44.017" fill="undefined" fill-rule="evenodd"/></svg>